# xmcd
#
# Track frame offsets:
#	150
#	14499
#	27679
#	40162
#	53370
#	66912
#	79785
#	92232
#	106779
#	119121
#	131659
#	142972
#	154787
#	168105
#	179697
#	192598
#	204579
#	216366
#	227762
#	240245
#	252338
#	264403
#	276078
#	287781
#	299930
#
# Disc length: 4151 seconds
#
# Revision: 5
# Processed by: cddbd v1.5.2PL0 Copyright (c) Steve Scherf et al.
# Submitted via: EZCDAudioConverter 7.0.9.1
#
DISCID=80103519
DTITLE=Various Artist - Triomphes du Blues 9, Piano Blues
DYEAR=2001
DGENRE=Blues
TTITLE0=Memphis Slim - Grinder man blues - 1946
TTITLE1=Memphis Slim - Empty room blues - 1941
TTITLE2=Memphis Slim - Old taylor - 1941
TTITLE3=Memphis Slim - Jasper's Gal - 1941
TTITLE4=Memphis Slim - You got to help me some - 1941
TTITLE5=Memphis Slim - Maybe i'll loan you a dime - 1941
TTITLE6=Memphis Slim - Whiskey and gin blues - 1941
TTITLE7=Memphis Slim - Send me your love - 1941
TTITLE8=Memphis Slim - Don't ration my love - 1946
TTITLE9=Memphis Slim - Pacemaker boogie - 1947
TTITLE10=Memphis Slim - Nobody loves me (Everyday i have the blues) - 1947
TTITLE11=Memphis Slim - Blue and lonesome - 1948
TTITLE12=Champion Jack Dupree - New long down dog - 1940
TTITLE13=Champion Jack Dupree - Cabbage greens n° 1 - 1940
TTITLE14=Champion Jack Dupree - Angola blues - 1940
TTITLE15=Champion Jack Dupree - My cabin Inn - 1941
TTITLE16=Champion Jack Dupree - Bad health blues - 1941
TTITLE17=Champion Jack Dupree - That's all right - 1941
TTITLE18=Champion Jack Dupree - Gibing blues - 1941
TTITLE19=Champion Jack Dupree - Dupree shake dance - 1941
TTITLE20=Champion Jack Dupree - Junker blues - 1941
TTITLE21=Champion Jack Dupree - Big time mama - 1941
TTITLE22=Champion Jack Dupree - Hurry down sunshine - 1941
TTITLE23=Champion Jack Dupree - Jackie P. blues - 1941
TTITLE24=Champion Jack Dupree - Heavy heart blues - 1941
EXTD=
EXTT0=
EXTT1=
EXTT2=
EXTT3=
EXTT4=
EXTT5=
EXTT6=
EXTT7=
EXTT8=
EXTT9=
EXTT10=
EXTT11=
EXTT12=
EXTT13=
EXTT14=
EXTT15=
EXTT16=
EXTT17=
EXTT18=
EXTT19=
EXTT20=
EXTT21=
EXTT22=
EXTT23=
EXTT24=
PLAYORDER=
